# xmcd
#
# Track frame offsets:
#	150
#	38056
#	73509
#	101442
#	122928
#	152204
#	182218
#	213199
#	240557
#	273776
#	298518
#	328414
#
# Disc length: 4777 seconds
#
# Revision: 0
# Processed by: cddbd v1.5.2PL0 Copyright (c) Steve Scherf et al.
# Submitted via: EasyCDDAExtractor 5.0.5.1
#
DISCID=af12a70c
DTITLE=John Beaver - 1015 Vol 2
DYEAR=2007
DGENRE=Trance
TTITLE0=Leama and Moore - Distance Between Us
TTITLE1=Alucard and Solar Stone - Late Summer Fields
TTITLE2=Jonas Steur - Fall to Pieces
TTITLE3=Markus Schulz and Andy Moor - Daydream
TTITLE4=Three Drives - Greece 2000 (Leama and James Davis Mix)
TTITLE5=Shiloh and Gareth Emery - Outrageous (Shiloh Rmx)
TTITLE6=Summer Channel - Undertow (Thomas Radman Rmx)
TTITLE7=Darren Tate - Echoes
TTITLE8=Breakfast - The Sunlight
TTITLE9=Beats Of Genesis - Lost in Love (Eddie Williams Rmx)
TTITLE10=Rex Mundl vs. Ronski Speed - Perspective Space
TTITLE11=Dogzilla - Frozen
EXTD=Booking Info\n1(408)482-1796\ndjbeaver@comcast.net\nwww.myspace.com/djjoh
EXTD=nbeaver\nwww.myspace.com/Librarisingrecordings\n
EXTT0=
EXTT1=
EXTT2=
EXTT3=
EXTT4=
EXTT5=
EXTT6=
EXTT7=
EXTT8=
EXTT9=
EXTT10=
EXTT11=
PLAYORDER=
